<?xml version="1.0" encoding="UTF-8"?>
<svg id="Layer_1" data-name="Layer 1" xmlns="http://www.w3.org/2000/svg" version="1.1" viewBox="0 0 190.9 80.09">
  <defs>
    <style>
      .cls-1 {
        fill: #e01837;
      }

      .cls-1, .cls-2, .cls-3 {
        stroke-width: 0px;
      }

      .cls-2 {
        fill: #e11837;
      }

      .cls-3 {
        fill: #fff;
      }
    </style>
  </defs>
  <g>
    <g>
      <path class="cls-3" d="M56.1,28.74c3.17-.06,4.91-1.6,4.91-4.36,0-2.91-1.94-4.91-5.42-4.91h-9.04v1.52h2.17v16.54h-2.17v1.52h9.58c3.68,0,5.82-2.2,5.82-5.34s-2.11-4.85-5.85-4.96ZM52.28,20.98h1.97c1.8,0,2.97,1.71,2.97,3.71s-1.26,3.5-2.91,3.5h-2.02v-7.2ZM54.25,37.52h-1.97v-7.84h2.08c2.28,0,3.79,1.51,3.79,3.82s-1.31,4.02-3.91,4.02Z"/>
      <path class="cls-3" d="M113.07,19.46h-8.9v1.52h2.17v16.54h-2.17v1.52h8.87c2.8,0,4.82-1.15,6.62-2.86,1.94-1.88,2.99-4.34,2.99-6.96,0-5.28-4.19-9.76-9.58-9.76ZM112.32,37.52h-2.31v-16.54h2.42c3.34,0,6.19,4.05,6.19,8.24,0,4.48-2.71,8.3-6.3,8.3Z"/>
      <polygon class="cls-3" points="136.79 37.52 130.71 37.52 130.71 20.98 132.85 20.98 132.85 19.46 124.86 19.46 124.86 20.98 127.03 20.98 127.03 37.52 124.86 37.52 124.86 39.04 138.33 39.04 138.33 34.87 136.79 34.87 136.79 37.52"/>
      <polygon class="cls-3" points="153.35 37.52 147.16 37.52 147.16 29.93 151.73 29.93 151.73 31.93 153.27 31.9 153.27 26.28 151.73 26.31 151.73 28.25 147.16 28.25 147.16 20.98 153.1 20.98 153.1 23.57 154.61 23.57 154.61 19.46 141.32 19.46 141.32 20.98 143.48 20.98 143.48 37.52 141.32 37.52 141.32 39.04 154.9 39.04 154.9 34.87 153.35 34.87 153.35 37.52"/>
      <polygon class="cls-3" points="168.68 19.46 168.68 20.98 171.14 20.98 167.31 27.28 163.22 20.98 165.37 20.98 165.37 19.46 157.38 19.46 157.38 20.98 159.15 20.98 164.83 29.59 164.83 37.46 162.69 37.46 162.69 39.04 170.68 39.04 170.68 37.46 168.51 37.46 168.51 28.85 173.31 20.98 175.33 20.98 175.33 19.46 168.68 19.46"/>
      <path class="cls-3" d="M93.59,19.46h-2.2l-7.15,18.06h-2.56c-.57-.06-.91-.34-1.57-1.34l-4.05-6.21c2.68-.83,3.81-2.49,3.81-5.05,0,0,.32-5.45-6.25-5.45h-8.12v1.52h2.17v16.54h-2.17v1.52h7.84v-1.52h-2.14v-7.24h1.18l4.59,7.08c.97,1.51,1.25,1.68,2.94,1.68h8.49v-1.52h-2.31l1.91-4.79h6.85l1.86,4.79h-2.02v1.52h7.71v-1.52h-1.93l-6.87-18.06ZM72.88,28.85h-1.68v-7.87h1.8c2.02,0,3.19,1.65,3.19,3.93s-1.34,3.94-3.31,3.94ZM88.66,31.1l2.88-7.13,2.71,7.13h-5.59Z"/>
    </g>
    <g>
      <path class="cls-3" d="M61.12,45.22v9.24c0,2.59-.92,4.27-2.93,5.36-1.02.53-2.18.82-3.37.82-3.51,0-6.11-2.33-6.11-5.5v-9.91h-1.82v-.9h5.77v.9h-1.82v9.16c0,2.93,1.72,4.85,4.41,4.85s4.63-1.96,4.63-4.87v-9.14h-1.82v-.9h4.87v.9h-1.82Z"/>
      <path class="cls-3" d="M70.77,60.32v-.9h1.82v-7.1c0-1.28-.65-2.08-1.72-2.08s-1.65.46-3.76,2.88v6.3h1.84v.9h-5.5v-.9h1.84v-8.72h-2.11v-.66l3.49-.94h.44v2.71c1.82-2.11,2.86-2.76,4.41-2.76,1.79,0,2.91,1.16,2.91,3.03v7.34h1.82v.9h-5.48Z"/>
      <path class="cls-3" d="M77.68,60.32v-.9h1.84v-8.72h-2.11v-.66l3.49-.94h.44v10.32h1.84v.9h-5.5ZM80.32,46.21c-.7,0-1.26-.56-1.26-1.28s.56-1.26,1.26-1.26,1.29.55,1.29,1.26-.56,1.28-1.29,1.28Z"/>
      <path class="cls-3" d="M93.02,50.23l-3.95,10.4h-.49l-4.24-10.37-1.02-.03v-.9h4.7v.9h-1.69l2.88,7.15,2.71-7.15h-1.62v-.9h3.73v.9h-1.02Z"/>
      <path class="cls-3" d="M96.31,54.11v.27c0,3.03,1.6,5.14,3.9,5.14.97,0,1.62-.24,2.98-1.11l.46.9c-1.82,1.04-2.66,1.33-4.07,1.33-3.08,0-5.26-2.38-5.26-5.72s2.2-5.86,5.21-5.86c2.62,0,4.41,1.79,4.41,4.41v.66h-7.63ZM101.96,52.56c0-1.46-.99-2.5-2.4-2.5-1.77,0-3.01,1.19-3.22,3.08h5.62v-.58Z"/>
      <path class="cls-3" d="M112.51,51.61c-.48-.46-.82-.68-1.06-.68-.44,0-.87.41-2.21,2.04v6.44h2.33v.9h-5.99v-.9h1.84v-8.72h-2.11v-.66l3.49-.94h.44v2.71c1.74-2.23,2.37-2.76,3.25-2.76.29,0,.53.07.68.22l.75.65-1.41,1.7Z"/>
      <path class="cls-3" d="M119.17,60.63c-1.36,0-2.37-.31-3.08-.97v.87h-.97v-3.45h1.11v.66c0,1.04,1.36,1.96,2.86,1.96,1.33,0,2.33-.7,2.33-1.67s-.68-1.5-3.22-2.49c-2.33-.9-3.15-1.8-3.15-3.32,0-1.89,1.53-3.17,3.76-3.17,1.06,0,1.89.27,2.57.82l.14-.87h1.04l-.58,3.49h-1.04c.1-.27.15-.58.15-.8,0-.94-1.09-1.72-2.4-1.72s-2.08.68-2.08,1.72.17,1.16,3.1,2.35c2.37.94,3.13,1.75,3.13,3.3,0,1.94-1.5,3.29-3.66,3.29Z"/>
      <path class="cls-3" d="M124.71,60.32v-.9h1.84v-8.72h-2.11v-.66l3.49-.94h.44v10.32h1.84v.9h-5.5ZM127.35,46.21c-.7,0-1.26-.56-1.26-1.28s.56-1.26,1.26-1.26,1.28.55,1.28,1.26-.56,1.28-1.28,1.28Z"/>
      <path class="cls-3" d="M144.85,49.34v.9h1.62l-2.71,7.15-2.93-7.15h1.72v-.9h-8v-3.17h-1.75v3.17h-2.11v.9h2.11v7.95c0,1.48.85,2.35,2.25,2.35.9,0,1.38-.22,2.67-1.24l-.41-.66c-.82.48-1.14.58-1.65.58-.8,0-1.12-.34-1.12-1.26v-7.73h4.31l3.93,9.62c-.58,1.47-.9,2.06-1.57,2.96-.75.97-1.21,1.33-2.55,2.08l1.57,1.62c.44-.58.75-1.02.97-1.31.8-1.17,1.69-2.89,2.25-4.34l4.1-10.64h1.02v-.9h-3.73Z"/>
    </g>
  </g>
  <g>
    <path class="cls-3" d="M21.44,42.95l7.56,3.05,7.55-3.04c3.73-1.46,6.13-4.99,6.13-9v-15.89c-3.6-3-8.43-4.83-13.74-4.83s-10.03,1.79-13.62,4.73v15.99c0,4,2.41,7.53,6.12,8.99Z"/>
    <path class="cls-2" d="M21.77,42.12l7.23,2.91,7.22-2.91c3.38-1.33,5.57-4.53,5.57-8.17v-15.44c-3.42-2.72-7.91-4.38-12.84-4.38s-9.33,1.62-12.74,4.29v15.53c0,3.63,2.19,6.84,5.56,8.16ZM28.94,15.56c4.12,0,8.06,1.26,11.43,3.66v14.74c0,3.05-1.83,5.73-4.67,6.85l-6.7,2.7-6.7-2.7c-2.84-1.11-4.67-3.8-4.67-6.85v-14.82c3.34-2.35,7.24-3.58,11.32-3.58Z"/>
    <g>
      <path class="cls-1" d="M35.97,22.03l-2.54-2.53h-11.53v2.57l1.16,1v12.07l-1.16,1v2.59h11.53l2.54-2.54v-5.86l-1.22-1.22,1.22-1.22v-5.86ZM27.68,27.07v-3.48h3.64v3.48h-3.64ZM27.68,34.62v-3.47h3.64v3.47h-3.64Z"/>
      <path class="cls-3" d="M34.24,22.42l-1.44-1.42h-9.23l1.21,1.08v14.06l-1.21,1.09h9.22l1.45-1.44v-5.58l-1.1-1.1,1.1-1.1v-5.59ZM25.96,22.08h7.09v6.49h-7.09v-6.49ZM33.06,36.13h-7.09v-6.48h7.09v6.48Z"/>
    </g>
  </g>
</svg>